<!DOCTYPE svg PUBLIC "-//W3C//DTD SVG 1.1//EN" "http://www.w3.org/Graphics/SVG/1.1/DTD/svg11.dtd">
<!-- Uploaded to: SVG Repo, www.svgrepo.com, Transformed by: SVG Repo Mixer Tools -->
<svg version="1.1" id="Layer_1" xmlns="http://www.w3.org/2000/svg" xmlns:xlink="http://www.w3.org/1999/xlink" viewBox="0 0 480 480" xml:space="preserve" width="800px" height="800px" fill="#000000" transform="matrix(-1, 0, 0, 1, 0, 0)">
<g id="SVGRepo_bgCarrier" stroke-width="0"/>
<g id="SVGRepo_tracerCarrier" stroke-linecap="round" stroke-linejoin="round"/>
<g id="SVGRepo_iconCarrier"> <g> <circle style="fill:#4AA1B5;" cx="392" cy="368" r="72"/> <circle style="fill:#4AA1B5;" cx="392" cy="368" r="27"/> </g> <circle style="fill:#AD5F26;" cx="392" cy="368" r="72"/> <circle style="fill:#F7FAFD;" cx="392" cy="368" r="27"/> <circle style="fill:#AD5F26;" cx="88" cy="368" r="72"/> <circle style="fill:#F7FAFD;" cx="88" cy="368" r="27"/> <polygon style="fill:#E67F33;" points="136,128 104,128 96,160 152,160 "/> <polygon style="fill:#AD5F26;" points="216,184 272,224 408,224 440,192 288,192 "/> <rect x="344" y="224" style="fill:#F7FAFD;" width="64" height="32"/> <polygon style="fill:#E67F33;" points="120,232 168,232 216,184 152,160 96,160 104,192 "/> <polygon style="fill:#F7FAFD;" points="96,160 72,160 64,192 104,192 "/> <polygon style="fill:#E67F33;" points="192,328 160,264 224,264 240,296 224,328 "/> <g> <polygon style="fill:#FCB641;" points="312,288 280,272 226.04,264 240,296 224,328 288,320 "/> <polygon style="fill:#FCB641;" points="288,224 280,272 312,288 344,256 344,224 "/> <polygon style="fill:#FCB641;" points="168.664,232.328 216.328,184.16 272.168,224.728 224,264 160,264 "/> </g> <g> <path style="fill:#132C47;" d="M408,232H272c-1.664,0-3.296-0.52-4.648-1.488l-56-40c-2.968-2.12-4.128-5.968-2.824-9.368 s4.712-5.52,8.352-5.088L288.448,184H440c3.232,0,6.16,1.952,7.392,4.936c1.24,2.992,0.552,6.432-1.736,8.72l-32,32 C412.16,231.16,410.128,232,408,232z M274.56,216h130.128l16-16H288c-0.296,0-0.592-0.016-0.88-0.048l-41.472-4.608L274.56,216z"/> <path style="fill:#132C47;" d="M88.008,376c-0.608,0-1.224-0.064-1.84-0.208c-4.304-1.016-6.968-5.32-5.96-9.624l32-136 c1.016-4.304,5.336-6.968,9.624-5.96c4.304,1.016,6.968,5.32,5.96,9.624l-32,136C94.92,373.512,91.632,376,88.008,376z"/> </g> <polygon style="fill:#E67F33;" points="272,224 224,264 280,272 288,224 "/> <g> <path style="fill:#132C47;" d="M88,333c-19.304,0-35,15.696-35,35s15.696,35,35,35s35-15.696,35-35S107.304,333,88,333z M88,387 c-10.48,0-19-8.52-19-19s8.52-19,19-19s19,8.52,19,19S98.48,387,88,387z"/> <path style="fill:#132C47;" d="M472,360h-0.408c-0.48-4.856-1.456-9.552-2.768-14.112l0.424-0.168 c4.104-1.64,6.104-6.296,4.464-10.4s-6.328-6.096-10.4-4.456l-0.432,0.176c-2.544-4.848-5.528-9.424-8.976-13.632l0.32-0.32 c3.128-3.128,3.128-8.192,0-11.32c-3.128-3.12-8.184-3.12-11.312,0l-0.32,0.32c-3.464-2.84-7.2-5.352-11.112-7.584l0.192-0.44 c1.784-4.04-0.048-8.768-4.088-10.552c-4.048-1.776-8.76,0.048-10.552,4.08l-0.176,0.4c-5.4-1.768-11.032-3.016-16.864-3.6V288 c0-4.416-3.576-8-8-8s-8,3.584-8,8v0.408c-5.832,0.584-11.464,1.832-16.864,3.6l-0.176-0.4c-1.792-4.032-6.48-5.864-10.552-4.08 c-4.04,1.784-5.864,6.512-4.088,10.552l0.192,0.44c-3.912,2.232-7.64,4.744-11.112,7.584L323.312,288l24-24H408 c4.424,0,8-3.584,8-8v-8h8c4.424,0,8-3.584,8-8s-3.576-8-8-8h-8v-4.688l29.656-29.656c2.288-2.288,2.976-5.728,1.736-8.72 C446.16,185.952,443.232,184,440,184H288.448l-70.56-7.84l-2.048-0.768c-0.216-2.704-1.664-5.248-4.264-6.552l-32-16 c-3.968-1.992-8.76-0.368-10.736,3.576c-0.2,0.392-0.208,0.816-0.328,1.224l-10.76-4.032l-14.592-29.192 C141.8,121.712,139.032,120,136,120h-3.056l8-16H160c0,4.416,3.584,8,8,8s8-3.584,8-8h16c4.416,0,8-3.584,8-8s-3.584-8-8-8h-16 c0-4.416-3.584-8-8-8s-8,3.584-8,8h-24c-3.032,0-5.8,1.712-7.16,4.424L115.056,120H104c-3.672,0-6.872,2.496-7.76,6.056L89.752,152 H72c-3.672,0-6.872,2.496-7.76,6.056l-8,32c-0.6,2.392-0.056,4.92,1.456,6.864S61.536,200,64,200h34.584l8.952,22.384l-50.544-6.32 c-1.336-0.176-2.704,0.008-3.968,0.504l-40,16c-4.104,1.648-6.096,6.296-4.456,10.4C9.824,246.096,12.832,248,16,248 c0.992,0,1.992-0.184,2.968-0.576l38.08-15.232L119,239.936c0.136,0.016,0.248-0.04,0.384-0.032C119.6,239.92,119.792,240,120,240 h38.272l-5.984,21.888c-0.016,0.064,0.008,0.128-0.008,0.192c-0.272,1.096-0.328,2.224-0.128,3.336 c0.008,0.048,0,0.104,0.016,0.152c0.136,0.688,0.36,1.368,0.68,2.008l32,64C186.2,334.288,188.968,336,192,336h32 c0.328,0,0.664-0.016,0.992-0.064L240,334.064V360h-16c-4.416,0-8,3.584-8,8s3.584,8,8,8h48c4.424,0,8-3.584,8-8s-3.576-8-8-8h-16 v-27.936l32.992-4.128c2.16-0.272,4.112-1.4,5.408-3.136l18.464-24.624l16.904,16.904l0.32,0.32 c-3.44,4.2-6.432,8.776-8.976,13.632l-0.432-0.176c-4.072-1.648-8.76,0.344-10.4,4.456c-1.64,4.104,0.36,8.76,4.464,10.4 l0.424,0.168c-1.312,4.56-2.288,9.264-2.768,14.112H312c-4.424,0-8,3.584-8,8s3.576,8,8,8h0.408 c0.48,4.856,1.456,9.552,2.768,14.112l-0.424,0.168c-4.104,1.64-6.104,6.296-4.464,10.4c1.248,3.128,4.256,5.032,7.432,5.032 c0.992,0,2-0.184,2.968-0.576l0.432-0.176c2.544,4.848,5.528,9.424,8.976,13.632l-0.32,0.32c-3.128,3.128-3.128,8.192,0,11.32 c1.56,1.56,3.608,2.336,5.656,2.336s4.096-0.784,5.656-2.344l0.32-0.32c3.464,2.84,7.2,5.352,11.112,7.584l-0.192,0.44 c-1.784,4.04,0.048,8.768,4.088,10.552c1.056,0.464,2.152,0.688,3.224,0.688c3.072,0,6-1.784,7.328-4.768l0.176-0.4 c5.4,1.768,11.032,3.016,16.864,3.6V448c0,4.416,3.576,8,8,8s8-3.584,8-8v-0.408c5.832-0.584,11.464-1.832,16.864-3.6l0.176,0.4 c1.328,2.992,4.248,4.768,7.328,4.768c1.08,0,2.168-0.224,3.224-0.688c4.04-1.784,5.864-6.512,4.088-10.552l-0.192-0.44 c3.912-2.232,7.64-4.744,11.112-7.584l0.32,0.32c1.56,1.56,3.608,2.344,5.656,2.344s4.096-0.784,5.656-2.336 c3.128-3.128,3.128-8.192,0-11.32l-0.32-0.32c3.44-4.2,6.432-8.776,8.976-13.632l0.432,0.176c0.968,0.392,1.976,0.576,2.968,0.576 c3.168,0,6.176-1.904,7.432-5.032c1.64-4.104-0.36-8.76-4.464-10.4l-0.424-0.168c1.312-4.56,2.288-9.264,2.768-14.112H472 c4.424,0,8-3.584,8-8S476.424,360,472,360z M392,304c35.288,0,64,28.712,64,64s-28.712,64-64,64s-64-28.712-64-64 c0-14.768,5.072-28.336,13.504-39.184l20.824,20.824c-3.32,5.352-5.336,11.608-5.336,18.352c0,19.304,15.704,35,35,35 s35-15.696,35-35S411.296,333,392,333c-6.752,0-13,2.008-18.352,5.336l-20.824-20.824C363.664,309.072,377.232,304,392,304z M386.344,373.656c1.56,1.56,3.608,2.344,5.656,2.344s4.096-0.784,5.656-2.344c3.128-3.128,3.128-8.184,0-11.312l-12.136-12.136 c2.032-0.744,4.192-1.208,6.48-1.208c10.48,0,19,8.52,19,19s-8.52,19-19,19s-19-8.52-19-19c0-2.28,0.472-4.448,1.208-6.48 L386.344,373.656z M125.416,224l-13.784-34.464L106.248,168h44.304l51.008,19.128L164.688,224H125.416z M336,252.688 l-25.576,25.576l-21.56-10.776L294.776,232H336V252.688z M278.552,232l-5.16,30.936l-29.976-4.448L275.904,232H278.552z M175.832,236.464l41.352-41.784l0.992,0.712l40.416,29.376L221.104,256H170.48L175.832,236.464z M400,248h-48v-16h48V248z M287.12,199.952c0.288,0.032,0.584,0.048,0.88,0.048h132.688l-16,16H344h-56h-13.44l-28.92-20.656L287.12,199.952z M110.248,136 h20.808l8,16h-32.808L110.248,136z M78.248,168h11.504l4,16H74.248L78.248,168z M172.944,272h46.112l12,24l-12,24h-22.112 L172.944,272z M283.64,312.488l-45.8,5.72l9.312-18.632c0.552-1.096,0.808-2.288,0.824-3.48c0.008-0.392-0.168-0.76-0.224-1.152 c-0.096-0.728-0.12-1.464-0.416-2.144l-8.088-18.544l38.336,5.48l22.272,11.136L283.64,312.488z"/> <path style="fill:#132C47;" d="M138.912,430.224c1.56,1.56,3.608,2.344,5.656,2.344s4.096-0.784,5.656-2.344 c3.128-3.128,3.128-8.184,0-11.312l-0.32-0.32c3.44-4.2,6.432-8.776,8.968-13.624l0.424,0.168c0.976,0.392,1.984,0.576,2.968,0.576 c3.176,0,6.176-1.904,7.432-5.032c1.648-4.104-0.352-8.76-4.456-10.4l-0.424-0.168c1.312-4.56,2.288-9.264,2.768-14.112H168 c4.416,0,8-3.584,8-8s-3.584-8-8-8h-0.408c-0.48-4.856-1.456-9.552-2.768-14.112l0.424-0.168c4.104-1.64,6.096-6.296,4.456-10.4 s-6.296-6.096-10.4-4.456l-0.424,0.168c-2.544-4.848-5.528-9.424-8.968-13.624l0.32-0.32c3.128-3.128,3.128-8.184,0-11.312 s-8.184-3.128-11.312,0l-0.32,0.32c-3.464-2.84-7.2-5.352-11.112-7.584l0.192-0.44c1.784-4.04-0.04-8.768-4.08-10.552 c-4.04-1.792-8.768,0.032-10.552,4.08l-0.176,0.408c-5.4-1.768-11.032-3.016-16.864-3.6V288c0-4.416-3.584-8-8-8s-8,3.584-8,8 v0.408c-5.832,0.584-11.464,1.832-16.864,3.6L62.96,291.6c-1.784-4.048-6.528-5.872-10.552-4.08 c-4.04,1.784-5.864,6.512-4.08,10.552l0.192,0.44c-3.912,2.232-7.648,4.744-11.112,7.584l-0.32-0.32 c-3.128-3.128-8.184-3.128-11.312,0s-3.128,8.184,0,11.312l0.32,0.32c-3.44,4.2-6.432,8.776-8.968,13.624l-0.424-0.168 c-4.112-1.656-8.76,0.344-10.4,4.456c-1.648,4.104,0.352,8.76,4.456,10.4l0.424,0.168c-1.32,4.56-2.296,9.256-2.776,14.112H8 c-4.416,0-8,3.584-8,8s3.584,8,8,8h0.408c0.48,4.856,1.456,9.552,2.768,14.112l-0.424,0.168c-4.104,1.64-6.096,6.296-4.456,10.4 c1.248,3.128,4.256,5.032,7.432,5.032c0.992,0,2-0.184,2.968-0.576l0.424-0.168c2.544,4.848,5.528,9.424,8.968,13.624l-0.32,0.32 c-3.128,3.128-3.128,8.184,0,11.312c1.56,1.56,3.608,2.344,5.656,2.344s4.096-0.784,5.656-2.344l0.32-0.32 c3.464,2.84,7.2,5.352,11.112,7.584l-0.192,0.44c-1.784,4.04,0.04,8.768,4.08,10.552c1.048,0.464,2.152,0.688,3.232,0.688 c3.072,0,6-1.784,7.32-4.768l0.176-0.408c5.4,1.768,11.032,3.016,16.864,3.6V448c0,4.416,3.584,8,8,8s8-3.584,8-8v-0.408 c5.832-0.584,11.464-1.832,16.864-3.6l0.176,0.408c1.32,2.992,4.248,4.768,7.32,4.768c1.08,0,2.176-0.224,3.232-0.688 c4.04-1.784,5.864-6.512,4.08-10.552l-0.192-0.44c3.912-2.232,7.648-4.744,11.112-7.584L138.912,430.224z M88,432 c-35.288,0-64-28.712-64-64s28.712-64,64-64s64,28.712,64,64S123.288,432,88,432z"/> <circle style="fill:#132C47;" cx="128" cy="184" r="8"/> <circle style="fill:#132C47;" cx="208" cy="296" r="8"/> <path style="fill:#132C47;" d="M120,272c4.416,0,8-3.584,8-8s-3.584-8-8-8h-16c-4.416,0-8,3.584-8,8s3.584,8,8,8H120z"/> <path style="fill:#132C47;" d="M24,440H8c-4.416,0-8,3.584-8,8s3.584,8,8,8h16c4.416,0,8-3.584,8-8S28.416,440,24,440z"/> <path style="fill:#132C47;" d="M240,440h-88c-4.416,0-8,3.584-8,8s3.584,8,8,8h88c4.416,0,8-3.584,8-8S244.416,440,240,440z"/> <path style="fill:#132C47;" d="M320,440h-48c-4.424,0-8,3.584-8,8s3.576,8,8,8h48c4.424,0,8-3.584,8-8S324.424,440,320,440z"/> <path style="fill:#132C47;" d="M472,440h-16c-4.424,0-8,3.584-8,8s3.576,8,8,8h16c4.424,0,8-3.584,8-8S476.424,440,472,440z"/> <path style="fill:#132C47;" d="M216,40h24c4.416,0,8-3.584,8-8s-3.584-8-8-8h-24c-4.416,0-8,3.584-8,8S211.584,40,216,40z"/> <path style="fill:#132C47;" d="M272,40h8c4.424,0,8-3.584,8-8s-3.576-8-8-8h-8c-4.424,0-8,3.584-8,8S267.576,40,272,40z"/> <path style="fill:#132C47;" d="M8,72h24c4.416,0,8-3.584,8-8s-3.584-8-8-8H8c-4.416,0-8,3.584-8,8S3.584,72,8,72z"/> <path style="fill:#132C47;" d="M64,72h8c4.416,0,8-3.584,8-8s-3.584-8-8-8h-8c-4.416,0-8,3.584-8,8S59.584,72,64,72z"/> <path style="fill:#132C47;" d="M408,104h24c4.424,0,8-3.584,8-8s-3.576-8-8-8h-24c-4.424,0-8,3.584-8,8S403.576,104,408,104z"/> <path style="fill:#132C47;" d="M464,104h8c4.424,0,8-3.584,8-8s-3.576-8-8-8h-8c-4.424,0-8,3.584-8,8S459.576,104,464,104z"/> <path style="fill:#132C47;" d="M272,144c0,4.416,3.576,8,8,8h24c4.424,0,8-3.584,8-8s-3.576-8-8-8h-24 C275.576,136,272,139.584,272,144z"/> <path style="fill:#132C47;" d="M336,152h8c4.424,0,8-3.584,8-8s-3.576-8-8-8h-8c-4.424,0-8,3.584-8,8S331.576,152,336,152z"/> </g> </g>
</svg>